<svg width="46" height="48" viewBox="0 0 46 48" fill="none" xmlns="http://www.w3.org/2000/svg">
<g clip-path="url(#clip0_134_462)">
<path d="M45.8923 10.9515C45.9093 11.0151 45.918 11.0807 45.9182 11.1465V21.3869C45.9182 21.5184 45.8838 21.6475 45.8186 21.7612C45.7533 21.8749 45.6594 21.9693 45.5464 22.0346L37.0303 26.9831V36.7914C37.0303 37.0583 36.8897 37.3047 36.6604 37.4391L18.8837 47.7672C18.843 47.7905 18.7986 47.8055 18.7542 47.8213C18.7376 47.8269 18.7218 47.8372 18.7043 47.8419C18.58 47.8749 18.4494 47.8749 18.3251 47.8419C18.3048 47.8363 18.2863 47.8251 18.2668 47.8176C18.2262 47.8027 18.1836 47.7896 18.1448 47.7672L0.371755 37.4391C0.258848 37.3736 0.165034 37.2793 0.0997677 37.1656C0.0345014 37.0518 8.9461e-05 36.9228 0 36.7914L0 6.07022C0 6.00302 0.00924763 5.93769 0.0258934 5.87422C0.031442 5.85275 0.0443886 5.83315 0.0517867 5.81169C0.0656582 5.77249 0.0786049 5.73235 0.0989497 5.69596C0.112821 5.67169 0.133166 5.65209 0.149812 5.62969C0.171081 5.59982 0.190501 5.56902 0.21547 5.54289C0.236739 5.52142 0.264482 5.50556 0.288526 5.48689C0.315344 5.46449 0.339388 5.44023 0.369905 5.42249L9.2578 0.258436C9.37033 0.193086 9.49788 0.158691 9.62771 0.158691C9.75754 0.158691 9.88509 0.193086 9.99762 0.258436L18.8846 5.42249H18.8864C18.916 5.44116 18.941 5.46449 18.9678 5.48596C18.9919 5.50462 19.0187 5.52142 19.04 5.54196C19.0658 5.56902 19.0843 5.59982 19.1065 5.62969C19.1223 5.65209 19.1435 5.67169 19.1565 5.69596C19.1777 5.73329 19.1898 5.77249 19.2046 5.81169C19.212 5.83315 19.2249 5.85275 19.2305 5.87515C19.2475 5.93876 19.2562 6.00433 19.2563 6.07022V25.2583L26.6618 20.9548V11.1456C26.6618 11.0803 26.6711 11.014 26.6877 10.9515C26.6942 10.9291 26.7062 10.9095 26.7136 10.888C26.7284 10.8488 26.7414 10.8087 26.7617 10.7723C26.7756 10.748 26.7959 10.7284 26.8117 10.706C26.8339 10.6761 26.8524 10.6453 26.8782 10.6192C26.8995 10.5977 26.9263 10.5819 26.9504 10.5632C26.9781 10.5408 27.0022 10.5166 27.0318 10.4988L35.9206 5.33476C36.0331 5.26932 36.1606 5.23487 36.2905 5.23487C36.4203 5.23487 36.5479 5.26932 36.6604 5.33476L45.5474 10.4988C45.5788 10.5175 45.6028 10.5408 45.6306 10.5623C45.6537 10.5809 45.6805 10.5977 45.7018 10.6183C45.7277 10.6453 45.7462 10.6761 45.7684 10.706C45.785 10.7284 45.8054 10.748 45.8183 10.7723C45.8396 10.8087 45.8516 10.8488 45.8664 10.888C45.8747 10.9095 45.8868 10.9291 45.8923 10.9515ZM44.4367 20.9548V12.4392L41.3267 14.2461L37.0303 16.7427V25.2583L44.4376 20.9548H44.4367ZM35.5498 36.3592V27.838L31.3236 30.274L19.2554 37.2253V45.8268L35.5498 36.3592ZM1.48147 7.36286V36.3592L17.7739 45.8259V37.2263L9.26243 32.3646L9.25965 32.3628L9.25596 32.3609C9.22729 32.3441 9.20324 32.3198 9.17643 32.2993C9.15331 32.2806 9.12649 32.2657 9.10614 32.2452L9.10429 32.2424C9.08025 32.219 9.06361 32.1901 9.04326 32.164C9.02477 32.1388 9.00257 32.1173 8.98777 32.0912L8.98685 32.0884C8.9702 32.0604 8.96003 32.0268 8.94801 31.995C8.93599 31.967 8.92027 31.9409 8.91287 31.911C8.90362 31.8756 8.90177 31.8373 8.89807 31.8009C8.89437 31.7729 8.88697 31.7449 8.88697 31.7169V11.6664L4.59145 9.16884L1.48147 7.36286ZM9.62863 1.76855L2.22406 6.07022L9.62679 10.3719L17.0304 6.06928L9.62679 1.76855H9.62863ZM13.4793 28.6145L17.7749 26.1188V7.36286L14.6649 9.16977L10.3684 11.6664V30.4224L13.4793 28.6145ZM36.2905 6.84487L28.8868 11.1465L36.2905 15.4482L43.6932 11.1456L36.2905 6.84487ZM35.5498 16.7427L31.2533 14.2461L28.1433 12.4392V20.9548L32.4388 23.4505L35.5498 25.2583V16.7427ZM18.5138 35.9327L29.3733 29.6757L34.8016 26.5491L27.4035 22.2502L18.8855 27.1996L11.1221 31.7104L18.5138 35.9327Z" fill="#FF2D20"/>
</g>
<defs>
<clipPath id="clip0_134_462">
<rect width="46" height="48" fill="white"/>
</clipPath>
</defs>
</svg>
