<svg width="23" height="48" viewBox="0 0 23 48" fill="none" xmlns="http://www.w3.org/2000/svg">
<path d="M11.4409 0.131348L12.7218 2.53718C13.0097 2.98115 13.3217 3.37412 13.6892 3.74009C14.7665 4.80401 15.7708 5.93951 16.695 7.13885C18.8653 9.98865 20.3292 13.1534 21.3746 16.5762C22.0016 18.667 22.3421 20.8119 22.3676 22.9807C22.4726 29.4648 20.2497 35.0324 15.768 39.6595C15.0391 40.3933 14.2515 41.0665 13.4132 41.6724C12.9692 41.6724 12.7593 41.3319 12.5763 41.0184C12.243 40.4372 12.0213 39.7988 11.9223 39.1361C11.7648 38.3516 11.6613 37.5672 11.7123 36.7572V36.3913C11.6763 36.3133 11.2849 0.315835 11.4409 0.131348Z" fill="#599636"/>
<path d="M11.4408 0.0516009C11.3883 -0.0533917 11.3358 0.0261027 11.2833 0.077099C11.3088 0.602062 11.1259 1.07003 10.8394 1.517C10.5244 1.96097 10.1074 2.30144 9.68896 2.66742C7.36412 4.68027 5.53425 7.1116 4.06886 9.83091C2.119 13.4906 1.11407 17.4129 0.829088 21.5421C0.698597 23.0315 1.30005 28.2871 1.76952 29.8035C3.05043 33.8292 5.35127 37.2025 8.33155 40.1303C9.0635 40.8352 9.84645 41.4892 10.6564 42.1176C10.8919 42.1176 10.9174 41.9076 10.9714 41.7516C11.0746 41.4179 11.1533 41.077 11.2069 40.7317L11.7318 36.811L11.4408 0.0516009Z" fill="#6CAC48"/>
<path d="M12.7218 43.2649C12.7743 42.6649 13.0623 42.167 13.3757 41.6705C13.0608 41.54 12.8268 41.2805 12.6438 40.991C12.486 40.717 12.3554 40.4281 12.2538 40.1286C11.8878 39.0307 11.8099 37.8788 11.7049 36.7568V36.0774C11.5744 36.1824 11.5474 37.0703 11.5474 37.2023C11.471 38.3881 11.3137 39.5673 11.0764 40.7316C10.9984 41.2025 10.9459 41.672 10.6564 42.0905C10.6564 42.143 10.6564 42.1955 10.6819 42.2735C11.1529 43.6594 11.2819 45.0708 11.3614 46.5092V47.0341C11.3614 47.6611 11.3359 47.5291 11.8563 47.7391C12.0663 47.8171 12.3003 47.8441 12.5103 48C12.6678 48 12.6933 47.8696 12.6933 47.7646L12.6153 46.9021V44.4963C12.5898 44.0763 12.6678 43.6594 12.7203 43.2664L12.7218 43.2649Z" fill="#C2BFBF"/>
</svg>
