<svg width="44" height="48" viewBox="0 0 44 48" fill="none" xmlns="http://www.w3.org/2000/svg">
<path d="M20.0468 0.512092C21.2297 -0.169158 22.7704 -0.172235 23.9522 0.512092C29.8981 3.89253 35.8459 7.26767 41.7907 10.6502C42.9089 11.2839 43.6568 12.5359 43.6454 13.8323V34.1703C43.6538 35.5203 42.8319 36.8023 41.6523 37.4217C35.7259 40.7835 29.8026 44.1494 23.8773 47.5112C22.67 48.2058 21.0983 48.1523 19.9287 47.4008C18.152 46.3644 16.3722 45.3332 14.5953 44.2979C14.2322 44.0802 13.8229 43.9068 13.5665 43.5526C13.7932 43.2452 14.1984 43.2069 14.5277 43.0727C15.2693 42.8354 15.9505 42.4546 16.6318 42.0849C16.8041 41.9663 17.0144 42.0118 17.1796 42.1179C18.6989 42.9944 20.2048 43.8964 21.7292 44.7645C22.0544 44.9534 22.3837 44.7026 22.6616 44.5467C28.4772 41.2396 34.2999 37.945 40.1144 34.6368C40.3299 34.5326 40.449 34.3025 40.4315 34.065C40.4356 27.3559 40.4325 20.6457 40.4335 13.9366C40.4582 13.6672 40.3032 13.4194 40.0611 13.3092C34.1553 9.96275 28.2526 6.61121 22.3478 3.26393C22.2455 3.19317 22.1243 3.1552 22.0002 3.15502C21.876 3.15483 21.7547 3.19244 21.6522 3.26291C15.7474 6.61121 9.84573 9.96583 3.94097 13.3121C3.6997 13.4225 3.53778 13.6661 3.56649 13.9366C3.56751 20.6457 3.56649 27.3559 3.56649 34.066C3.55625 34.1819 3.58154 34.2981 3.63896 34.3991C3.69637 34.5 3.78315 34.5809 3.88762 34.6307C5.46333 35.5297 7.04108 36.4225 8.61782 37.3184C9.50609 37.7995 10.5967 38.0853 11.5754 37.7167C12.439 37.4051 13.0444 36.5184 13.0279 35.5957C13.0361 28.9258 13.0238 22.2548 13.034 15.5859C13.0125 15.2898 13.2916 15.0452 13.5777 15.0731C14.3348 15.0679 15.093 15.0628 15.8501 15.0751C16.1661 15.0679 16.3836 15.3868 16.3445 15.6851C16.3414 22.3972 16.3526 29.1096 16.3394 35.8217C16.3414 37.6106 15.611 39.5571 13.9665 40.4323C11.9405 41.4883 9.43643 41.2644 7.43493 40.2518C5.70222 39.3817 4.04869 38.3547 2.34673 37.4225C1.16401 36.8066 0.346252 35.5195 0.354577 34.1705V13.8323C0.342174 12.5091 1.11984 11.2343 2.27282 10.6098C8.19815 7.24527 14.1225 3.87817 20.0468 0.512092Z" fill="#8CC84B"/>
<path d="M25.216 14.6007C27.8003 14.4334 30.5669 14.5016 32.8924 15.7825C34.6929 16.7641 35.6911 18.8243 35.7228 20.8369C35.6726 21.1084 35.3905 21.2582 35.1329 21.2395C34.3831 21.2385 33.6332 21.2498 32.8834 21.2344C32.5653 21.2467 32.3804 20.9516 32.3405 20.6687C32.1251 19.7057 31.6031 18.752 30.7023 18.2875C29.3194 17.5909 27.716 17.6259 26.2081 17.6404C25.1072 17.6993 23.9235 17.7952 22.9909 18.4465C22.2749 18.9399 22.0574 19.9358 22.313 20.738C22.5539 21.3139 23.2147 21.4997 23.7553 21.671C26.8697 22.4906 30.17 22.409 33.2249 23.4876C34.4897 23.9273 35.7269 24.782 36.1598 26.1144C36.7261 27.9002 36.4779 30.0348 35.2152 31.4684C34.1911 32.6481 32.6997 33.2902 31.2122 33.639C29.2333 34.0829 27.1796 34.0942 25.1699 33.8971C23.2802 33.6803 21.3137 33.1808 19.8549 31.8853C18.6075 30.7955 17.9982 29.0974 18.0587 27.4585C18.0731 27.1817 18.347 26.9887 18.6105 27.0114C19.3656 27.0053 20.1207 27.0032 20.8757 27.0125C21.1773 26.9908 21.4009 27.253 21.4164 27.539C21.5557 28.4565 21.8984 29.4195 22.6935 29.9635C24.2281 30.9596 26.1537 30.8914 27.9109 30.9193C29.3666 30.8543 31.0008 30.8346 32.1888 29.8665C32.8156 29.3144 33.0013 28.3905 32.8319 27.5958C32.6484 26.9248 31.9507 26.6121 31.3517 26.4076C28.2772 25.4291 24.9401 25.7842 21.8953 24.6776C20.6593 24.2381 19.464 23.4071 18.9891 22.1293C18.3264 20.321 18.6301 18.0842 20.0252 16.699C21.3854 15.3211 23.349 14.7906 25.216 14.6007Z" fill="#8CC84B"/>
</svg>
