<svg width="55" height="48" viewBox="0 0 55 48" fill="none" xmlns="http://www.w3.org/2000/svg">
<path d="M54.7539 24.0055C54.7539 20.4349 50.232 17.051 43.2991 14.9526C44.899 7.96521 44.1879 2.40604 41.0548 0.62623C40.3326 0.208743 39.4882 0.0109863 38.566 0.0109863V2.46098C39.0771 2.46098 39.4882 2.55985 39.8326 2.74662C41.3436 3.60357 41.9992 6.86656 41.4881 11.0634C41.3659 12.0961 41.1659 13.1838 40.9214 14.2934C38.7438 13.7661 36.3662 13.3596 33.8663 13.0959C32.3664 11.0634 30.811 9.21767 29.2444 7.60265C32.8664 4.27375 36.2662 2.44999 38.5771 2.44999V0C35.5218 0 31.522 2.15335 27.4778 5.88876C23.4336 2.17533 19.4339 0.0439461 16.3785 0.0439461V2.49393C18.6784 2.49393 22.0893 4.30671 25.7113 7.61364C24.1558 9.22866 22.6003 11.0634 21.1227 13.0959C18.6117 13.3596 16.2341 13.7661 14.0564 14.3044C13.8009 13.2058 13.612 12.1401 13.4787 11.1183C12.9565 6.92149 13.6009 3.6585 15.1008 2.79057C15.4341 2.59281 15.8674 2.50492 16.3785 2.50492V0.0549325C15.4452 0.0549325 14.6008 0.252689 13.8675 0.670176C10.7455 2.44999 10.0456 7.99817 11.6566 14.9636C4.74588 17.073 0.246155 20.4459 0.246155 24.0055C0.246155 27.5761 4.7681 30.9599 11.701 33.0584C10.1011 40.0458 10.8122 45.6049 13.9453 47.3848C14.6675 47.8022 15.5119 48 16.4452 48C19.5005 48 23.5003 45.8466 27.5445 42.1112C31.5887 45.8247 35.5884 47.9561 38.6438 47.9561C39.5771 47.9561 40.4215 47.7583 41.1548 47.3408C44.2768 45.561 44.9768 40.0128 43.3657 33.0474C50.2542 30.949 54.7539 27.5651 54.7539 24.0055ZM40.2882 16.6775C39.8771 18.0948 39.366 19.556 38.7882 21.0172C38.3327 20.1382 37.855 19.2593 37.3328 18.3804C36.8217 17.5015 36.2773 16.6445 35.7329 15.8096C37.3106 16.0403 38.8327 16.3259 40.2882 16.6775ZM35.1996 28.3781C34.333 29.8613 33.4441 31.2676 32.522 32.575C30.8665 32.7178 29.1888 32.7947 27.5 32.7947C25.8224 32.7947 24.1447 32.7178 22.5004 32.5859C21.5782 31.2786 20.6782 29.8833 19.8116 28.4111C18.9672 26.9718 18.2006 25.5106 17.5007 24.0385C18.1895 22.5663 18.9672 21.0941 19.8005 19.6548C20.6671 18.1717 21.556 16.7654 22.4781 15.458C24.1336 15.3152 25.8113 15.2383 27.5 15.2383C29.1777 15.2383 30.8554 15.3152 32.4997 15.447C33.4219 16.7544 34.3218 18.1497 35.1885 19.6219C36.0329 21.0611 36.7995 22.5223 37.4994 23.9945C36.7995 25.4667 36.0329 26.9389 35.1996 28.3781ZM38.7882 26.9499C39.3882 28.4221 39.8993 29.8943 40.3215 31.3225C38.866 31.6741 37.3328 31.9707 35.744 32.2014C36.2884 31.3555 36.8328 30.4875 37.3439 29.5976C37.855 28.7187 38.3327 27.8288 38.7882 26.9499ZM27.5223 38.6725C26.489 37.6178 25.4557 36.4422 24.4336 35.1568C25.4335 35.2007 26.4557 35.2337 27.4889 35.2337C28.5333 35.2337 29.5666 35.2117 30.5776 35.1568C29.5777 36.4422 28.5444 37.6178 27.5223 38.6725ZM19.2561 32.2014C17.6784 31.9707 16.1563 31.6851 14.7008 31.3335C15.1119 29.9162 15.623 28.455 16.2007 26.9938C16.6563 27.8727 17.134 28.7517 17.6562 29.6306C18.1784 30.5095 18.7117 31.3664 19.2561 32.2014ZM27.4667 9.33852C28.5 10.3932 29.5333 11.5688 30.5554 12.8542C29.5555 12.8103 28.5333 12.7773 27.5 12.7773C26.4557 12.7773 25.4224 12.7993 24.4113 12.8542C25.4113 11.5688 26.4446 10.3932 27.4667 9.33852ZM19.245 15.8096C18.7006 16.6555 18.1562 17.5235 17.6451 18.4134C17.134 19.2923 16.6563 20.1712 16.2007 21.0501C15.6008 19.5779 15.0897 18.1057 14.6675 16.6775C16.123 16.3369 17.6562 16.0403 19.245 15.8096ZM9.19005 29.5647C5.25696 27.9057 2.71267 25.7304 2.71267 24.0055C2.71267 22.2806 5.25696 20.0943 9.19005 18.4463C10.1456 18.0398 11.1899 17.6773 12.2676 17.3367C12.9009 19.49 13.7342 21.7313 14.7675 24.0275C13.7453 26.3127 12.9232 28.5429 12.301 30.6853C11.201 30.3447 10.1567 29.9712 9.19005 29.5647ZM15.1675 45.2644C13.6564 44.4074 13.0009 41.1444 13.512 36.9476C13.6342 35.9149 13.8342 34.8272 14.0786 33.7176C16.2563 34.2449 18.6339 34.6514 21.1338 34.9151C22.6337 36.9476 24.1891 38.7933 25.7557 40.4083C22.1337 43.7372 18.7339 45.561 16.4229 45.561C15.923 45.55 15.5008 45.4511 15.1675 45.2644ZM41.5214 36.8927C42.0436 41.0895 41.3992 44.3525 39.8993 45.2204C39.566 45.4182 39.1327 45.5061 38.6216 45.5061C36.3217 45.5061 32.9108 43.6933 29.2888 40.3864C30.8443 38.7713 32.3997 36.9366 33.8774 34.9041C36.3884 34.6404 38.766 34.2339 40.9437 33.6956C41.1992 34.8052 41.3992 35.8709 41.5214 36.8927ZM45.7989 29.5647C44.8434 29.9712 43.799 30.3337 42.7213 30.6743C42.088 28.5209 41.2548 26.2797 40.2215 23.9835C41.2436 21.6983 42.0658 19.4681 42.688 17.3257C43.7879 17.6663 44.8323 18.0398 45.81 18.4463C49.7431 20.1053 52.2874 22.2806 52.2874 24.0055C52.2763 25.7304 49.732 27.9167 45.7989 29.5647Z" fill="#61DAFB"/>
<path d="M27.4888 29.0265C30.293 29.0265 32.5663 26.7786 32.5663 24.0057C32.5663 21.2328 30.293 18.9849 27.4888 18.9849C24.6846 18.9849 22.4114 21.2328 22.4114 24.0057C22.4114 26.7786 24.6846 29.0265 27.4888 29.0265Z" fill="#61DAFB"/>
</svg>
