<svg width="56" height="34" viewBox="0 0 56 34" fill="none" xmlns="http://www.w3.org/2000/svg">
<path d="M28 0C20.5331 0 15.8666 3.70337 13.9997 11.1094C16.8 7.40605 20.0667 6.01781 23.7998 6.9433C25.93 7.47136 27.4524 9.00482 29.1379 10.7016C31.883 13.4655 35.06 16.6645 42.0004 16.6645C49.4665 16.6645 54.1338 12.9611 56 5.55436C53.2003 9.25774 49.9336 10.6467 46.1998 9.72118C44.0703 9.19312 42.548 7.65966 40.8624 5.96291C38.1174 3.19894 34.9396 0 28 0ZM13.9997 16.6645C6.53345 16.6645 1.8662 20.3678 0 27.7746C2.79965 24.0712 6.06638 22.6823 9.80018 23.6085C11.9297 24.1372 13.452 25.67 15.1376 27.366C17.8826 30.13 21.0604 33.3297 28 33.3297C35.4669 33.3297 40.1334 29.6263 42.0004 22.2195C39.2 25.9229 35.9333 27.3118 32.2002 26.3857C30.07 25.8583 28.5476 24.3241 26.8621 22.6281C24.117 19.8641 20.94 16.6645 13.9997 16.6645Z" fill="#06B6D4"/>
</svg>
